<svg fill="none" xmlns="http://www.w3.org/2000/svg" viewBox="0 0 147 40">
  <path d="M72.1933 18.4251c-.0001-.3327.1322-.6523.3687-.8903.2365-.2381.5584-.3757.8968-.3834h7.2115c5.1123 0 8.477 2.6758 8.477 7.0599v.0592c0 4.7988-4.0778 7.287-8.8989 7.287h-5.494v6.7341c.0158.1747-.0056.3507-.0628.5168-.0572.1661-.149.3187-.2694.4481-.1205.1294-.267.2327-.4302.3034-.1633.0707-.3398.1072-.5182.1072s-.3548-.0365-.5181-.1072c-.1632-.0707-.3098-.174-.4302-.3034-.1205-.1294-.2122-.282-.2694-.4481-.0572-.1661-.0786-.3421-.0628-.5168V18.4251zm8.1556 10.8614c3.7463 0 6.2071-1.9748 6.2071-4.937v-.0592c0-3.1795-2.4206-4.8284-6.0263-4.8284h-5.725v9.7851l5.5442.0395zM94.0186 18.2671c-.0158-.1747.0056-.3507.0628-.5169.0572-.1661.149-.3187.2694-.4481.1205-.1293.267-.2326.4302-.3033.1633-.0707.3398-.1072.5182-.1072s.3548.0365.5181.1072c.1633.0707.3098.174.4302.3033.1205.1294.2122.282.2694.4481.0572.1662.0786.3422.0629.5169v20.0244c.0157.1747-.0057.3507-.0629.5169-.0572.1661-.1489.3187-.2694.4481-.1204.1293-.2669.2326-.4302.3033-.1633.0707-.3397.1072-.5181.1072s-.3549-.0365-.5182-.1072c-.1632-.0707-.3097-.174-.4302-.3033-.1204-.1294-.2122-.282-.2694-.4481-.0572-.1662-.0786-.3422-.0628-.5169V18.2671zM103.199 18.2963c.007-.3266.144-.6376.38-.8678.236-.2301.553-.3614.885-.3664h.352c.261.0052.516.0749.743.2026.226.1276.416.3092.552.528l13.751 17.2302V18.2371c0-.3248.131-.6362.364-.8658.234-.2296.551-.3586.881-.3586.33 0 .647.129.881.3586.233.2296.364.541.364.8658v20.0935c.006.1528-.02.3051-.077.4476-.056.1425-.141.2722-.25.3812-.109.1091-.24.1951-.384.2529-.144.0579-.298.0863-.454.0835h-.13c-.267-.0181-.526-.0971-.756-.2308-.23-.1337-.425-.3184-.57-.5394L105.67 21.0907v17.2399c-.003.3183-.129.6236-.353.8532-.224.2296-.529.366-.853.3811-.328-.0052-.641-.1378-.871-.369-.23-.2312-.357-.5422-.354-.8653V18.2963h-.04zM128.74 18.2671c-.016-.1747.006-.3507.063-.5169.057-.1661.149-.3187.269-.4481.121-.1293.267-.2326.431-.3033.163-.0707.339-.1072.518-.1072.178 0 .355.0365.518.1072.163.0707.31.174.43.3033.121.1294.212.282.27.4481.057.1662.078.3422.062.5169v12.1746l12.897-13.004c.264-.2691.624-.4282 1.004-.4444.329.0126.64.1486.87.3801.23.2314.361.5407.366.8641-.008.1681-.048.3333-.121.4858-.072.1525-.175.2894-.301.4028l-8.035 7.8202 8.667 10.427c.227.2579.352.5873.352.9281-.004.1707-.042.339-.113.4951-.07.1562-.171.2971-.297.4146-.126.1175-.275.2092-.437.27-.162.0608-.335.0894-.509.0842-.203-.0055-.401-.0608-.576-.1608-.176-.1001-.323-.2416-.428-.4119l-8.447-10.3578-4.892 4.7987v4.8383c0 .1647-.033.3277-.097.4799-.064.1521-.158.2904-.276.4068-.119.1164-.259.2088-.414.2718-.155.063-.321.0955-.488.0955-.168 0-.334-.0325-.488-.0955-.155-.063-.296-.1554-.414-.2718-.119-.1164-.213-.2547-.277-.4068-.064-.1522-.097-.3152-.097-.4799V18.2671h-.01z"/>
  <path d="M98.9401 9.74577c-.9652.00001-1.891-.37626-2.5745-1.04631-.6834-.67004-1.0687-1.57918-1.0714-2.52807 0 .94798-.3831 1.85714-1.0649 2.52747-.6819.67033-1.6067 1.04691-2.571 1.04691.9652.00262 1.89.38143 2.5716 1.05333.6816.6719 1.0643 1.582 1.0643 2.5309.0027-.9498.3876-1.8599 1.0708-2.5315.6832-.6717 1.609-1.05012 2.5751-1.05273zM43.287 19.0665h.7332c-.2183-.3678-.5305-.6733-.9057-.8863-.3752-.213-.8004-.3261-1.2336-.3282-.4182-.0003-.8259-.1289-1.1662-.3678-.3402-.239-.5962-.5764-.7321-.9652-.7238.2053-1.4265.4764-2.0992.8097h.1909c.5327 0 1.0437.2081 1.4204.5784.3767.3704.5883.8727.5883 1.3964.005.0954.005.191 0 .2864 1.026-.3676 2.1123-.545 3.204-.5234z" fill="#D22856"/>
  <path d="M60.7332 27.6472L55.5406 6.56621C55.179 4.24582 52.9291 0 46.9028 0c-.3995 0-.7827.156044-1.0653.433804-.2825.27776-.4413.654486-.4413 1.047296s.1588.76953.4413 1.04729c.2826.27776.6658.43381 1.0653.43381 4.8713 0 5.5945 3.683 5.6648 4.08783l4.7808 19.45177h-2.0991c-.2172-1.6968-.8054-3.3274-1.7243-4.7796-.9189-1.4521-2.1467-2.6915-3.599-3.633-.4548.1882-.8431.504-1.1164.9079-.2733.4039-.4195.878-.4203 1.3631.0055.0855.0055.1712 0 .2567 1.2214.8235 2.2238 1.9232 2.9229 3.2067.6991 1.2836 1.0745 2.7134 1.0947 4.1692-.0061.4966-.0531.9919-.1406 1.4811-.3288 2.0975-1.4104 4.0101-3.049 5.3918-1.6387 1.3817-3.7262 2.1413-5.8851 2.1413-2.1588 0-4.2463-.7596-5.885-2.1413-1.6386-1.3817-2.7202-3.2943-3.049-5.3918-.0875-.4892-.1346-.9845-.1406-1.4811.0157-1.3699.3417-2.7191.9542-3.9496-.5081-.0351-.9836-.2585-1.3304-.6251s-.539-.8491-.5378-1.3497c.0017-.1794-.0666-.3525-.1908-.4838-.9718 1.4906-1.5866 3.1787-1.7979 4.9369h-1.8681c-.3205-2.9041-1.721-5.5896-3.9326-7.5406-2.2115-1.9511-5.0783-3.0302-8.0498-3.0302s-5.8382 1.0791-8.04977 3.0302c-2.21156 1.951-3.61204 4.6365-3.93253 7.5406H3.44302L8.23394 7.05003c.06027-.40483.81356-4.08783 5.66476-4.08783.3996 0 .7828-.15605 1.0653-.43381.2825-.27776.4413-.65448.4413-1.04729 0-.39281-.1588-.769536-.4413-1.047296C14.6815.156044 14.2983 0 13.8987 0 7.87236 0 5.62254 4.24582 5.26096 6.56621L.0582358 27.6472c-.06435748.2145-.0755609.4411-.0326747.6608.0428862.2197.1386169.4261.2791979.602s.321931.3162.528905.4091c.206976.093.433566.1359.660846.1252h4.01755c.08172.6107.20929 1.2147.38166 1.8069.06345-.1083.098-.2306.10044-.3555 0-.5237.21164-1.026.58836-1.3964.37671-.3703.88765-.5784 1.42041-.5784.16232.0039.32382.0237.48211.0593-.04252-.3276-.066-.6572-.07031-.9874.00269-.4964.04636-.9917.13057-1.4811.32178-2.1043 1.40097-4.0253 3.0414-5.4136 1.6404-1.3884 3.7331-2.152 5.8976-2.152 2.1646 0 4.2573.7636 5.8977 2.152 1.6404 1.3883 2.7196 3.3093 3.0414 5.4136.0842.4894.1279.9847.1306 1.4811.0098 1.6579-.4523 3.2854-1.3341 4.6987-.8818 1.4132-2.1482 2.5557-3.656 3.2984-1.5078.7427-3.1968 1.0559-4.8762.9043-1.6794-.1517-3.2821-.7622-4.627-1.7625-.3625.3095-.8257.4811-1.3057.4838-.1981.0026-.3871.0818-.5262.2204s-.2171.3254-.2171.5201c-.0027.2761-.06431.5486-.18078.7998 2.14878 1.7508 4.85258 2.7078 7.64338 2.7055 2.948.0125 5.7985-1.0377 8.0121-2.9518 2.2136-1.9142 3.6368-4.5595 4.0004-7.4356h1.8279c.3309 2.8952 1.7352 5.5692 3.9446 7.5109C37.4688 38.9266 40.3285 40 43.2921 40c2.9636 0 5.8233-1.0734 8.0327-3.0152 2.2095-1.9417 3.6137-4.6157 3.9446-7.5109h4.0175c.2322.0165.465-.0236.6778-.1166.2127-.0931.3988-.2363.5418-.4169.143-.1806.2386-.3931.2781-.6187.0395-.2256.0219-.4572-.0514-.6745z" fill="#D22856"/>
  <path d="M50.9203 15.9168c-.593.0013-1.1805-.1124-1.7288-.3346-.5483-.2222-1.0467-.5486-1.4665-.9604-.4198-.4118-.7529-.901-.9802-1.4395-.2272-.5386-.3442-1.1159-.3442-1.6989-.0027 1.1767-.48 2.3044-1.3273 3.1355-.8474.8311-1.9955 1.2979-3.1924 1.2979 1.1979.0026 2.3459.4716 3.193 1.3043.847.8327 1.324 1.9614 1.3267 3.139 0-1.1784.4762-2.3086 1.3238-3.1419.8476-.8332 1.9972-1.3014 3.1959-1.3014zM38.0743 19.3828c-.7326 0-1.4351-.2861-1.9531-.7953s-.809-1.1999-.809-1.92c0 .7184-.2896 1.4076-.8054 1.9165-.5159.509-1.2158.7962-1.9466.7988.7299 0 1.4298.2851 1.946.7924.5161.5074.806 1.1956.806 1.9131.0027-.7184.2948-1.4066.8125-1.9137.5177-.5071 1.2188-.7918 1.9496-.7918zM10.785 33.6406c-.729-.0052-1.42644-.2936-1.94009-.8022-.51365-.5087-.80189-1.1964-.80188-1.9131.00001.7184-.28961 1.4076-.80543 1.9166-.51582.5089-1.21578.7961-1.94658.7987.7308.0027 1.43076.2899 1.94658.7988.51582.509.80544 1.1981.80543 1.9166-.00001-.7168.28823-1.4044.80188-1.9131.51365-.5087 1.21109-.797 1.94009-.8023z"/>
</svg>
