<svg fill="none" xmlns="http://www.w3.org/2000/svg" viewBox="0 0 74 23">
  <path d="M.00496827 1.54857C.00487772 1.21254.135804.889818.369742.649431.60368.409043.922049.27008 1.25676.262266h7.13325c5.05689 0 8.38509 2.702234 8.38509 7.129524v.05983c0 4.84608-4.0336 7.35888-8.80236 7.35888H2.53836v6.8005c.01558.1764-.00559.3541-.06217.5219-.05658.1677-.14732.3218-.26646.4525-.11915.1306-.26408.235-.42557.3064-.1615.0713-.33604.1082-.5125.1082-.17646 0-.350989-.0369-.512487-.1082-.161499-.0714-.306429-.1758-.425571-.3064-.119142-.1307-.209894-.2848-.2664725-.4525-.056578-.1678-.0777433-.3455-.06216123-.5219V1.54857zM8.07209 12.5171c3.70571 0 6.13981-1.9943 6.13981-4.98571v-.05983c0-3.21078-2.3944-4.876-5.96098-4.876H2.58804v9.88164l5.48405.0399zM21.5935 1.38904c-.0156-.17642.0056-.35417.0621-.521926.0566-.167761.1474-.321869.2665-.452518.1191-.130649.2641-.23498.4256-.306358C22.5092.0368607 22.6837 0 22.8602 0c.1764 0 .351.0368607.5125.108238.1615.071378.3064.175709.4255.306358.1192.130649.2099.284757.2665.452518.0566.167756.0778.345506.0622.521926V21.611c.0156.1764-.0056.3541-.0622.5219-.0566.1677-.1473.3219-.2665.4525-.1191.1307-.264.235-.4255.3064-.1615.0713-.3361.1082-.5125.1082-.1765 0-.351-.0369-.5125-.1082-.1615-.0714-.3065-.1757-.4256-.3064-.1191-.1306-.2099-.2848-.2665-.4525-.0565-.1678-.0777-.3455-.0621-.5219V1.38904zM30.674 1.41895c.0076-.32987.1423-.643943.3757-.876329.2334-.232386.5473-.365024.8761-.37009h.3477c.2581.005302.5108.075657.7347.204596.224.128938.412.312321.5469.533285L47.1559 18.3104V1.35912c0-.32792.1298-.64242.3609-.874299.231-.231879.5443-.362148.8711-.362148.3267 0 .64.130269.8711.362148.231.231879.3608.546379.3608.874299V21.6508c.0054.1543-.0205.3081-.0763.452-.0557.1439-.1401.2749-.2479.385-.1079.1101-.2369.197-.3793.2554-.1424.0584-.2952.0871-.449.0843h-.1291c-.2638-.0183-.5198-.0981-.7474-.2331-.2277-.1351-.4208-.3216-.564-.5447L33.1179 4.24085V21.6508c-.0021.3214-.1269.6297-.3487.8616-.2218.2318-.5236.3696-.8434.3849-.325-.0053-.6348-.1392-.8618-.3727-.2271-.2335-.353-.5475-.3503-.8738V1.41895h-.0397zM55.9384 1.38904c-.0156-.17642.0056-.35417.0621-.521926.0566-.167761.1474-.321869.2665-.452518.1192-.130649.2641-.23498.4256-.306358C56.8541.0368607 57.0286 0 57.2051 0c.1764 0 .351.0368607.5125.108238.1615.071378.3064.175709.4255.306358.1192.130649.2099.284757.2665.452518.0566.167756.0778.345506.0622.521926V13.6837L71.2282.551443c.2617-.271731.6173-.432338.9934-.448713.3252.012723.6332.150082.8605.383801.2273.233719.3567.546009.3615.872589-.007.16984-.0475.3366-.1191.49063-.0716.15404-.1729.2923-.2981.4068l-7.9479 7.89735 8.5738 10.5297c.2241.2605.3475.5932.3477.9373-.0039.1724-.0417.3424-.1113.5001-.0696.1576-.1697.2999-.2944.4185-.1247.1187-.2715.2114-.4321.2728-.1606.0614-.3317.0903-.5034.085-.2-.0082-.3949-.0651-.568-.1659-.1731-.1008-.3192-.2423-.4255-.4125L63.3001 11.859l-4.8283 4.8461v4.8859c0 .1663-.0327.331-.0961.4846-.0634.1537-.1563.2933-.2735.4109-.1171.1176-.2562.2108-.4093.2745-.1531.0636-.3172.0964-.4829.0964-.1657 0-.3297-.0328-.4828-.0964-.1531-.0637-.2922-.1569-.4093-.2745-.1172-.1176-.2101-.2572-.2736-.4109-.0634-.1536-.096-.3183-.096-.4846V1.38904h-.0099z"/>
</svg>
