<?xml version="1.0" encoding="UTF-8"?><!DOCTYPE svg PUBLIC "-//W3C//DTD SVG 1.1//EN" "http://www.w3.org/Graphics/SVG/1.1/DTD/svg11.dtd"><svg xmlns="http://www.w3.org/2000/svg" xmlns:xlink="http://www.w3.org/1999/xlink"><symbol id="logotype-blue-desktop" viewBox="0 0 147 40">
  <path d="M72.1933 18.4251c-.0001-.3327.1322-.6523.3687-.8903.2365-.2381.5584-.3757.8968-.3834h7.2115c5.1123 0 8.477 2.6758 8.477 7.0599v.0592c0 4.7988-4.0778 7.287-8.8989 7.287h-5.494v6.7341c.0158.1747-.0056.3507-.0628.5168-.0572.1661-.149.3187-.2694.4481-.1205.1294-.267.2327-.4302.3034-.1633.0707-.3398.1072-.5182.1072s-.3548-.0365-.5181-.1072c-.1632-.0707-.3098-.174-.4302-.3034-.1205-.1294-.2122-.282-.2694-.4481-.0572-.1661-.0786-.3421-.0628-.5168V18.4251zm8.1556 10.8614c3.7463 0 6.2071-1.9748 6.2071-4.937v-.0592c0-3.1795-2.4206-4.8284-6.0263-4.8284h-5.725v9.7851l5.5442.0395zM94.0186 18.2671c-.0158-.1747.0056-.3507.0628-.5169.0572-.1661.149-.3187.2694-.4481.1205-.1293.267-.2326.4302-.3033.1633-.0707.3398-.1072.5182-.1072s.3548.0365.5181.1072c.1633.0707.3098.174.4302.3033.1205.1294.2122.282.2694.4481.0572.1662.0786.3422.0629.5169v20.0244c.0157.1747-.0057.3507-.0629.5169-.0572.1661-.1489.3187-.2694.4481-.1204.1293-.2669.2326-.4302.3033-.1633.0707-.3397.1072-.5181.1072s-.3549-.0365-.5182-.1072c-.1632-.0707-.3097-.174-.4302-.3033-.1204-.1294-.2122-.282-.2694-.4481-.0572-.1662-.0786-.3422-.0628-.5169V18.2671zM103.199 18.2963c.007-.3266.144-.6376.38-.8678.236-.2301.553-.3614.885-.3664h.352c.261.0052.516.0749.743.2026.226.1276.416.3092.552.528l13.751 17.2302V18.2371c0-.3248.131-.6362.364-.8658.234-.2296.551-.3586.881-.3586.33 0 .647.129.881.3586.233.2296.364.541.364.8658v20.0935c.006.1528-.02.3051-.077.4476-.056.1425-.141.2722-.25.3812-.109.1091-.24.1951-.384.2529-.144.0579-.298.0863-.454.0835h-.13c-.267-.0181-.526-.0971-.756-.2308-.23-.1337-.425-.3184-.57-.5394L105.67 21.0907v17.2399c-.003.3183-.129.6236-.353.8532-.224.2296-.529.366-.853.3811-.328-.0052-.641-.1378-.871-.369-.23-.2312-.357-.5422-.354-.8653V18.2963h-.04zM128.74 18.2671c-.016-.1747.006-.3507.063-.5169.057-.1661.149-.3187.269-.4481.121-.1293.267-.2326.431-.3033.163-.0707.339-.1072.518-.1072.178 0 .355.0365.518.1072.163.0707.31.174.43.3033.121.1294.212.282.27.4481.057.1662.078.3422.062.5169v12.1746l12.897-13.004c.264-.2691.624-.4282 1.004-.4444.329.0126.64.1486.87.3801.23.2314.361.5407.366.8641-.008.1681-.048.3333-.121.4858-.072.1525-.175.2894-.301.4028l-8.035 7.8202 8.667 10.427c.227.2579.352.5873.352.9281-.004.1707-.042.339-.113.4951-.07.1562-.171.2971-.297.4146-.126.1175-.275.2092-.437.27-.162.0608-.335.0894-.509.0842-.203-.0055-.401-.0608-.576-.1608-.176-.1001-.323-.2416-.428-.4119l-8.447-10.3578-4.892 4.7987v4.8383c0 .1647-.033.3277-.097.4799-.064.1521-.158.2904-.276.4068-.119.1164-.259.2088-.414.2718-.155.063-.321.0955-.488.0955-.168 0-.334-.0325-.488-.0955-.155-.063-.296-.1554-.414-.2718-.119-.1164-.213-.2547-.277-.4068-.064-.1522-.097-.3152-.097-.4799V18.2671h-.01z" fill="#283645"/>
  <path d="M98.9401 9.74577c-.9652.00001-1.891-.37626-2.5745-1.04631-.6834-.67004-1.0687-1.57918-1.0714-2.52807 0 .94798-.3831 1.85714-1.0649 2.52747-.6819.67033-1.6067 1.04691-2.571 1.04691.9652.00262 1.89.38143 2.5716 1.05333.6816.6719 1.0643 1.582 1.0643 2.5309.0027-.9498.3876-1.8599 1.0708-2.5315.6832-.6717 1.609-1.05012 2.5751-1.05273zM43.287 19.0665h.7332c-.2183-.3678-.5305-.6733-.9057-.8863-.3752-.213-.8004-.3261-1.2336-.3282-.4182-.0003-.8259-.1289-1.1662-.3678-.3402-.239-.5962-.5764-.7321-.9652-.7238.2053-1.4265.4764-2.0992.8097h.1909c.5327 0 1.0437.2081 1.4204.5784.3767.3704.5883.8727.5883 1.3964.005.0954.005.191 0 .2864 1.026-.3676 2.1123-.545 3.204-.5234z" fill="#D22856"/>
  <path d="M60.7332 27.6472L55.5406 6.56621C55.179 4.24582 52.9291 0 46.9028 0c-.3995 0-.7827.156044-1.0653.433804-.2825.27776-.4413.654486-.4413 1.047296s.1588.76953.4413 1.04729c.2826.27776.6658.43381 1.0653.43381 4.8713 0 5.5945 3.683 5.6648 4.08783l4.7808 19.45177h-2.0991c-.2172-1.6968-.8054-3.3274-1.7243-4.7796-.9189-1.4521-2.1467-2.6915-3.599-3.633-.4548.1882-.8431.504-1.1164.9079-.2733.4039-.4195.878-.4203 1.3631.0055.0855.0055.1712 0 .2567 1.2214.8235 2.2238 1.9232 2.9229 3.2067.6991 1.2836 1.0745 2.7134 1.0947 4.1692-.0061.4966-.0531.9919-.1406 1.4811-.3288 2.0975-1.4104 4.0101-3.049 5.3918-1.6387 1.3817-3.7262 2.1413-5.8851 2.1413-2.1588 0-4.2463-.7596-5.885-2.1413-1.6386-1.3817-2.7202-3.2943-3.049-5.3918-.0875-.4892-.1346-.9845-.1406-1.4811.0157-1.3699.3417-2.7191.9542-3.9496-.5081-.0351-.9836-.2585-1.3304-.6251s-.539-.8491-.5378-1.3497c.0017-.1794-.0666-.3525-.1908-.4838-.9718 1.4906-1.5866 3.1787-1.7979 4.9369h-1.8681c-.3205-2.9041-1.721-5.5896-3.9326-7.5406-2.2115-1.9511-5.0783-3.0302-8.0498-3.0302s-5.8382 1.0791-8.04977 3.0302c-2.21156 1.951-3.61204 4.6365-3.93253 7.5406H3.44302L8.23394 7.05003c.06027-.40483.81356-4.08783 5.66476-4.08783.3996 0 .7828-.15605 1.0653-.43381.2825-.27776.4413-.65448.4413-1.04729 0-.39281-.1588-.769536-.4413-1.047296C14.6815.156044 14.2983 0 13.8987 0 7.87236 0 5.62254 4.24582 5.26096 6.56621L.0582358 27.6472c-.06435748.2145-.0755609.4411-.0326747.6608.0428862.2197.1386169.4261.2791979.602s.321931.3162.528905.4091c.206976.093.433566.1359.660846.1252h4.01755c.08172.6107.20929 1.2147.38166 1.8069.06345-.1083.098-.2306.10044-.3555 0-.5237.21164-1.026.58836-1.3964.37671-.3703.88765-.5784 1.42041-.5784.16232.0039.32382.0237.48211.0593-.04252-.3276-.066-.6572-.07031-.9874.00269-.4964.04636-.9917.13057-1.4811.32178-2.1043 1.40097-4.0253 3.0414-5.4136 1.6404-1.3884 3.7331-2.152 5.8976-2.152 2.1646 0 4.2573.7636 5.8977 2.152 1.6404 1.3883 2.7196 3.3093 3.0414 5.4136.0842.4894.1279.9847.1306 1.4811.0098 1.6579-.4523 3.2854-1.3341 4.6987-.8818 1.4132-2.1482 2.5557-3.656 3.2984-1.5078.7427-3.1968 1.0559-4.8762.9043-1.6794-.1517-3.2821-.7622-4.627-1.7625-.3625.3095-.8257.4811-1.3057.4838-.1981.0026-.3871.0818-.5262.2204s-.2171.3254-.2171.5201c-.0027.2761-.06431.5486-.18078.7998 2.14878 1.7508 4.85258 2.7078 7.64338 2.7055 2.948.0125 5.7985-1.0377 8.0121-2.9518 2.2136-1.9142 3.6368-4.5595 4.0004-7.4356h1.8279c.3309 2.8952 1.7352 5.5692 3.9446 7.5109C37.4688 38.9266 40.3285 40 43.2921 40c2.9636 0 5.8233-1.0734 8.0327-3.0152 2.2095-1.9417 3.6137-4.6157 3.9446-7.5109h4.0175c.2322.0165.465-.0236.6778-.1166.2127-.0931.3988-.2363.5418-.4169.143-.1806.2386-.3931.2781-.6187.0395-.2256.0219-.4572-.0514-.6745z" fill="#D22856"/>
  <path d="M50.9203 15.9168c-.593.0013-1.1805-.1124-1.7288-.3346-.5483-.2222-1.0467-.5486-1.4665-.9604-.4198-.4118-.7529-.901-.9802-1.4395-.2272-.5386-.3442-1.1159-.3442-1.6989-.0027 1.1767-.48 2.3044-1.3273 3.1355-.8474.8311-1.9955 1.2979-3.1924 1.2979 1.1979.0026 2.3459.4716 3.193 1.3043.847.8327 1.324 1.9614 1.3267 3.139 0-1.1784.4762-2.3086 1.3238-3.1419.8476-.8332 1.9972-1.3014 3.1959-1.3014zM38.0743 19.3828c-.7326 0-1.4351-.2861-1.9531-.7953s-.809-1.1999-.809-1.92c0 .7184-.2896 1.4076-.8054 1.9165-.5159.509-1.2158.7962-1.9466.7988.7299 0 1.4298.2851 1.946.7924.5161.5074.806 1.1956.806 1.9131.0027-.7184.2948-1.4066.8125-1.9137.5177-.5071 1.2188-.7918 1.9496-.7918zM10.785 33.6406c-.729-.0052-1.42644-.2936-1.94009-.8022-.51365-.5087-.80189-1.1964-.80188-1.9131.00001.7184-.28961 1.4076-.80543 1.9166-.51582.5089-1.21578.7961-1.94658.7987.7308.0027 1.43076.2899 1.94658.7988.51582.509.80544 1.1981.80543 1.9166-.00001-.7168.28823-1.4044.80188-1.9131.51365-.5087 1.21109-.797 1.94009-.8023z" fill="#283645"/>
</symbol><symbol id="logotype-blue-tablet" viewBox="0 0 145 40">
  <path d="M71.005 18.5486c-.0001-.3361.1308-.6588.3647-.8992.234-.2404.5523-.3793.8871-.3871H79.39c5.0569 0 8.3851 2.7022 8.3851 7.1295v.0598c0 4.8461-4.0336 7.3589-8.8024 7.3589h-5.4343v6.8005c.0155.1764-.0056.3541-.0622.5219-.0566.1677-.1473.3218-.2665.4525-.1191.1306-.264.235-.4255.3064-.1615.0713-.3361.1082-.5125.1082-.1765 0-.351-.0369-.5125-.1082-.1615-.0714-.3065-.1758-.4256-.3064-.1191-.1307-.2099-.2848-.2665-.4525-.0565-.1678-.0777-.3455-.0621-.5219V18.5486zm8.0671 10.9685c3.7057 0 6.1398-1.9943 6.1398-4.9857v-.0598c0-3.2108-2.3944-4.876-5.961-4.876H73.588v9.8816l5.4841.0399zM92.5935 18.389c-.0156-.1764.0056-.3541.0621-.5219.0566-.1677.1474-.3219.2665-.4525.1191-.1307.2641-.235.4256-.3064.1615-.0713.336-.1082.5125-.1082.1764 0 .351.0369.5125.1082.1615.0714.3064.1757.4255.3064.1192.1306.2099.2848.2665.4525.0566.1678.0778.3455.0622.5219v20.222c.0156.1764-.0056.3541-.0622.5219-.0566.1677-.1473.3219-.2665.4525-.1191.1307-.264.235-.4255.3064-.1615.0713-.3361.1082-.5125.1082-.1765 0-.351-.0369-.5125-.1082-.1615-.0714-.3065-.1757-.4256-.3064-.1191-.1306-.2099-.2848-.2665-.4525-.0565-.1678-.0777-.3455-.0621-.5219V18.389zM101.674 18.419c.008-.3299.142-.644.376-.8764.233-.2324.547-.365.876-.3701h.347c.259.0053.511.0757.735.2046.224.129.412.3123.547.5333l13.601 17.4V18.3591c0-.3279.13-.6424.361-.8743.231-.2319.544-.3621.871-.3621.327 0 .64.1302.871.3621.231.2319.361.5464.361.8743v20.2917c.005.1543-.021.3081-.076.452-.056.1439-.141.2749-.248.385-.108.1101-.237.197-.38.2554-.142.0584-.295.0871-.449.0843h-.129c-.264-.0183-.52-.0981-.747-.2331-.228-.1351-.421-.3216-.564-.5447l-13.909-17.8089v17.41c-.002.3214-.127.6297-.349.8616-.222.2318-.523.3696-.843.3849-.325-.0053-.635-.1392-.862-.3727-.227-.2335-.353-.5475-.35-.8738V18.419h-.04zM126.938 18.389c-.015-.1764.006-.3541.063-.5219.056-.1677.147-.3219.266-.4525.119-.1307.264-.235.426-.3064.161-.0713.336-.1082.512-.1082.177 0 .351.0369.513.1082.161.0714.306.1757.425.3064.119.1306.21.2848.267.4525.056.1678.077.3455.062.5219v12.2947l12.756-13.1323c.262-.2717.617-.4323.994-.4487.325.0128.633.1501.86.3838.227.2337.357.546.362.8726-.007.1699-.048.3366-.119.4907-.072.154-.173.2923-.299.4067l-7.948 7.8974 8.574 10.5297c.224.2605.348.5932.348.9373-.004.1724-.042.3424-.111.5001-.07.1576-.17.2999-.295.4185-.124.1187-.271.2114-.432.2728-.16.0614-.331.0903-.503.085-.2-.0082-.395-.0651-.568-.1659-.173-.1008-.319-.2423-.426-.4125L134.3 28.859l-4.828 4.8461v4.8859c0 .1663-.033.331-.096.4846-.064.1537-.157.2933-.274.4109-.117.1176-.256.2108-.409.2745-.153.0636-.317.0964-.483.0964-.166 0-.33-.0328-.483-.0964-.153-.0637-.292-.1569-.409-.2745-.117-.1176-.21-.2572-.274-.4109-.063-.1536-.096-.3183-.096-.4846V18.389h-.01z" fill="#283645"/>
  <path fill-rule="evenodd" clip-rule="evenodd" d="M53.8917 6.58616l5.0385 21.14504c.0711.2179.0882.4503.0498.6766-.0383.2263-.131.4394-.2698.6206-.1387.1812-.3193.3248-.5257.4181-.2065.0933-.4323.1335-.6577.117h-4.0067c-.6903 5.8112-5.5707 10.3149-11.4886 10.3149-5.9179 0-10.7983-4.5037-11.4885-10.3149h-1.9652C27.8869 35.442 22.9527 40 16.9685 40c-5.9943 0-10.935-4.5734-11.61279-10.4663H1.45014c-.22053.0108-.4404-.0323-.641226-.1255-.200829-.0932-.376795-.2339-.513203-.4103-.136407-.1765-.2292958-.3835-.2709088-.6038-.041613-.2204-.03074214-.4477.0317047-.6629L5.10477 6.58616C5.45562 4.25872 7.63865 0 13.4861 0c.3877 0 .7595.156518 1.0336.435122.2742.278605.4282.656478.4282 1.050478 0 .39401-.154.77188-.4282 1.05048-.2741.2786-.6459.43512-1.0336.43512-4.7072 0-5.43813 3.6942-5.4966 4.10026L3.3408 26.6022h2.03387c.74622-5.8175 5.65253-10.3104 11.59383-10.3104 5.9381 0 10.8422 4.488 11.5926 10.3008l1.9976.0091c.7456-5.7499 5.598-10.1883 11.4728-10.1883 5.8863 0 10.7461 4.4557 11.4771 10.2219v-.0529h2.1373L51.007 7.07146c-.0683-.40606-.77-4.10026-5.4966-4.10026-.3877 0-.7595-.15652-1.0337-.43512-.2741-.2786-.4282-.65647-.4282-1.05048 0-.394.1541-.771873.4282-1.050478C44.7509.156518 45.1227 0 45.5104 0c5.8474 0 8.0304 4.25872 8.3813 6.58616zM25.6722 29.5635c.0726-.4617.1103-.9352.1103-1.4176 0-.5295-.0454-1.0482-.1325-1.5524-.7248-4.1953-4.3359-7.3838-8.6815-7.3838-4.3482 0-7.96097 3.1923-8.68279 7.3913-.08626.5018-.13124 1.018-.13124 1.5449 0 .4746.03649.9405.10678 1.3951.66066 4.2726 4.30745 7.5411 8.70725 7.5411 4.392 0 8.0338-3.257 8.7037-7.5186zm24.9416 0c.0736-.4615.1118-.935.1118-1.4176 0-4.8682-3.8925-8.8146-8.6941-8.8146-4.8016 0-8.6941 3.9464-8.6941 8.8146 0 .4826.0382.9561.1118 1.4176.6688 4.1942 4.2566 7.397 8.5823 7.397s7.9135-3.2028 8.5823-7.397z" fill="#D22856"/>
</symbol><symbol id="logotype-white-desktop" viewBox="0 0 147 40">
  <path d="M72.1933 18.4249c-.0001-.3328.1322-.6523.3687-.8904.2365-.238.5584-.3756.8968-.3834h7.2115c5.1123 0 8.477 2.6759 8.477 7.0599v.0593c0 4.7987-4.0778 7.287-8.8989 7.287h-5.494v6.734c.0158.1747-.0056.3508-.0628.5169-.0572.1661-.149.3187-.2694.4481-.1205.1293-.267.2327-.4302.3033-.1633.0707-.3398.1072-.5182.1072s-.3548-.0365-.5181-.1072c-.1632-.0706-.3098-.174-.4302-.3033-.1205-.1294-.2122-.282-.2694-.4481-.0572-.1661-.0786-.3422-.0628-.5169V18.4249zm8.1556 10.8614c3.7463 0 6.2071-1.9748 6.2071-4.937V24.29c0-3.1794-2.4206-4.8284-6.0263-4.8284h-5.725v9.7852l5.5442.0395zM94.0186 18.2669c-.0158-.1747.0056-.3507.0628-.5168.0572-.1662.149-.3188.2694-.4481.1205-.1294.267-.2327.4302-.3034.1633-.0707.3398-.1072.5182-.1072s.3548.0365.5181.1072c.1633.0707.3098.174.4302.3034.1205.1293.2122.2819.2694.4481.0572.1661.0786.3421.0629.5168v20.0244c.0157.1747-.0057.3507-.0629.5169-.0572.1661-.1489.3187-.2694.4481-.1204.1293-.2669.2327-.4302.3033-.1633.0707-.3397.1072-.5181.1072s-.3549-.0365-.5182-.1072c-.1632-.0706-.3097-.174-.4302-.3033-.1204-.1294-.2122-.282-.2694-.4481-.0572-.1662-.0786-.3422-.0628-.5169V18.2669zM103.199 18.2965c.007-.3266.144-.6377.38-.8678.236-.2301.553-.3614.885-.3664h.352c.261.0052.516.0749.743.2026.226.1276.416.3092.552.528l13.751 17.2302V18.2373c0-.3248.131-.6362.364-.8658.234-.2296.551-.3586.881-.3586.33 0 .647.129.881.3586.233.2296.364.541.364.8658v20.0935c.006.1528-.02.3051-.077.4476-.056.1425-.141.2722-.25.3812-.109.1091-.24.1951-.384.2529-.144.0579-.298.0862-.454.0835h-.13c-.267-.0181-.526-.0971-.756-.2308-.23-.1338-.425-.3184-.57-.5394l-14.061-17.635v17.24c-.003.3183-.129.6236-.353.8532-.224.2295-.529.3659-.853.3811-.328-.0052-.641-.1379-.871-.369-.23-.2312-.357-.5422-.354-.8653V18.2965h-.04zM128.74 18.2669c-.016-.1747.006-.3507.063-.5168.057-.1662.149-.3188.269-.4481.121-.1294.267-.2327.431-.3034.163-.0707.339-.1072.518-.1072.178 0 .355.0365.518.1072.163.0707.31.174.43.3034.121.1293.212.2819.27.4481.057.1661.078.3421.062.5168v12.1746l12.897-13.004c.264-.2691.624-.4281 1.004-.4444.329.0126.64.1487.87.3801.23.2314.361.5407.366.8641-.008.1681-.048.3333-.121.4858-.072.1525-.175.2894-.301.4028l-8.035 7.8202 8.667 10.427c.227.2579.352.5873.352.9281-.004.1708-.042.339-.113.4952-.07.1561-.171.297-.297.4145-.126.1175-.275.2093-.437.2701-.162.0608-.335.0893-.509.0841-.202-.0081-.399-.0645-.574-.1643-.175-.0997-.323-.2399-.43-.4084l-8.457-10.3578-4.882 4.7987v4.8383c0 .1647-.033.3277-.097.4799-.064.1521-.158.2904-.276.4068-.119.1164-.259.2088-.414.2718-.155.0631-.321.0955-.488.0955-.168 0-.334-.0324-.488-.0955-.155-.063-.296-.1554-.414-.2718-.119-.1164-.213-.2547-.277-.4068-.064-.1522-.097-.3152-.097-.4799V18.2669h-.01z" fill="#fff"/>
  <path d="M98.9401 9.74563c-.9652 0-1.891-.37627-2.5745-1.04631-.6834-.67005-1.0687-1.57918-1.0714-2.52807 0 .94798-.3831 1.85714-1.0649 2.52747-.6819.67033-1.6067 1.04691-2.571 1.04691.9652.00262 1.89.38137 2.5716 1.05327.6816.6719 1.0643 1.5821 1.0643 2.531.0027-.9498.3876-1.86 1.0708-2.5316s1.609-1.05006 2.5751-1.05267z" fill="#D22856"/>
  <path d="M43.287 19.0667h.7332c-.2183-.3679-.5305-.6734-.9057-.8864-.3752-.213-.8004-.3261-1.2336-.3281-.4182-.0003-.8259-.1289-1.1662-.3679-.3402-.2389-.5962-.5763-.7321-.9651-.7238.2053-1.4265.4763-2.0992.8097h.1909c.5327 0 1.0437.208 1.4204.5784.3767.3703.5883.8726.5883 1.3964.005.0953.005.1909 0 .2863 1.026-.3675 2.1123-.5449 3.204-.5233z" fill="#fff"/>
  <path d="M60.7332 27.6472L55.5406 6.56621C55.179 4.24582 52.9291 0 46.9028 0c-.3995 0-.7827.156044-1.0653.433804-.2825.27776-.4413.654486-.4413 1.047296s.1588.76953.4413 1.04729c.2826.27776.6658.43381 1.0653.43381 4.8713 0 5.5945 3.683 5.6648 4.08783l4.7808 19.45177h-2.0991c-.2172-1.6968-.8054-3.3274-1.7243-4.7796-.9189-1.4521-2.1467-2.6915-3.599-3.633-.4548.1882-.8431.504-1.1164.9079-.2733.4039-.4195.878-.4203 1.3631.0055.0855.0055.1712 0 .2567 1.2214.8235 2.2238 1.9232 2.9229 3.2067.6991 1.2836 1.0745 2.7134 1.0947 4.1692-.0061.4966-.0531.9919-.1406 1.4811-.3288 2.0975-1.4104 4.0101-3.049 5.3918-1.6387 1.3817-3.7262 2.1413-5.8851 2.1413-2.1588 0-4.2463-.7596-5.885-2.1413-1.6386-1.3817-2.7202-3.2943-3.049-5.3918-.0875-.4892-.1346-.9845-.1406-1.4811.0157-1.3699.3417-2.7191.9542-3.9496-.5081-.0351-.9836-.2585-1.3304-.6251s-.539-.8491-.5378-1.3497c.0017-.1794-.0666-.3525-.1908-.4838-.9718 1.4906-1.5866 3.1787-1.7979 4.9369h-1.8681c-.3205-2.9041-1.721-5.5896-3.9326-7.5406-2.2115-1.9511-5.0783-3.0302-8.0498-3.0302s-5.8382 1.0791-8.04977 3.0302c-2.21156 1.951-3.61204 4.6365-3.93253 7.5406H3.44302L8.23394 7.05003c.06027-.40483.81356-4.08783 5.66476-4.08783.3996 0 .7828-.15605 1.0653-.43381.2825-.27776.4413-.65448.4413-1.04729 0-.39281-.1588-.769536-.4413-1.047296C14.6815.156044 14.2983 0 13.8987 0 7.87236 0 5.62254 4.24582 5.26096 6.56621L.0582358 27.6472c-.06435748.2145-.0755609.4411-.0326747.6608.0428862.2197.1386169.4261.2791979.602s.321931.3162.528905.4091c.206976.093.433566.1359.660846.1252h4.01755c.08172.6107.20929 1.2147.38166 1.8069.06345-.1083.098-.2306.10044-.3555 0-.5237.21164-1.026.58836-1.3964.37671-.3703.88765-.5784 1.42041-.5784.1631.0022.32519.0254.48211.0691-.04376-.3439-.06723-.6901-.07031-1.0367.00269-.4964.04636-.9917.13057-1.4811.32178-2.1043 1.40097-4.0253 3.0414-5.4136 1.6404-1.3884 3.7331-2.152 5.8976-2.152 2.1646 0 4.2573.7636 5.8977 2.152 1.6404 1.3883 2.7196 3.3093 3.0414 5.4136.0842.4894.1279.9847.1306 1.4811-.0158 2.3521-.9733 4.6034-2.6651 6.2666-1.6918 1.6632-3.9819 2.6044-6.3744 2.62-1.9582.0264-3.8721-.5731-5.4538-1.7082-.3625.3095-.8257.4811-1.3057.4838-.1981.0026-.3871.0818-.5262.2204s-.2171.3254-.2171.5201c-.0027.2761-.06431.5486-.18078.7998 2.14878 1.7508 4.85258 2.7078 7.64338 2.7055 2.948.0125 5.7985-1.0377 8.0121-2.9518 2.2136-1.9142 3.6368-4.5595 4.0004-7.4356h1.8279c.3309 2.8952 1.7352 5.5692 3.9446 7.5109C37.4688 38.9266 40.3285 40 43.2921 40c2.9636 0 5.8233-1.0734 8.0327-3.0152 2.2095-1.9417 3.6137-4.6157 3.9446-7.5109h4.0175c.2322.0165.465-.0236.6778-.1166.2127-.0931.3988-.2363.5418-.4169.143-.1806.2386-.3931.2781-.6187.0395-.2256.0219-.4572-.0514-.6745z" fill="#fff"/>
  <path d="M50.9203 15.9169c-.593.0013-1.1805-.1124-1.7288-.3347-.5483-.2222-1.0467-.5485-1.4665-.9603-.4198-.4119-.7529-.901-.9802-1.4396-.2272-.5385-.3442-1.1158-.3442-1.6988-.0027 1.1767-.48 2.3043-1.3273 3.1355-.8474.8311-1.9955 1.2979-3.1924 1.2979 1.1979.0026 2.3459.4716 3.193 1.3043.847.8327 1.324 1.9613 1.3267 3.139 0-1.1785.4762-2.3086 1.3238-3.1419.8476-.8333 1.9972-1.3014 3.1959-1.3014zM38.0743 19.3826c-.7326 0-1.4351-.286-1.9531-.7953-.518-.5092-.809-1.1998-.809-1.92 0 .7184-.2896 1.4076-.8054 1.9166-.5159.5089-1.2158.7961-1.9466.7987.7299 0 1.4298.2851 1.946.7925.5161.5073.806 1.1955.806 1.913.0027-.7184.2948-1.4065.8125-1.9136.5177-.5071 1.2188-.7919 1.9496-.7919zM10.7851 33.6407c-.729-.0052-1.42642-.2936-1.94007-.8023-.51365-.5086-.80189-1.1963-.80187-1.9131 0 .7185-.28962 1.4077-.80544 1.9166-.51582.5089-1.21578.7962-1.94658.7988.7308.0026 1.43076.2898 1.94658.7988.51582.5089.80544 1.1981.80544 1.9165-.00002-.7167.28822-1.4044.80187-1.9131.51365-.5086 1.21107-.797 1.94007-.8022z" fill="#D22856"/>
</symbol><symbol id="logotype-white-tablet" viewBox="0 0 145 40">
  <path fill-rule="evenodd" clip-rule="evenodd" d="M53.8917 6.58616l5.0385 21.14504c.0711.2179.0882.4503.0498.6766-.0383.2263-.131.4394-.2698.6206-.1387.1812-.3193.3248-.5257.4181-.2065.0933-.4323.1335-.6577.117h-4.0067c-.6903 5.8112-5.5707 10.3149-11.4886 10.3149-5.9179 0-10.7983-4.5037-11.4885-10.3149h-1.9652C27.8869 35.442 22.9527 40 16.9685 40c-5.9943 0-10.935-4.5734-11.61279-10.4663H1.45014c-.22053.0108-.4404-.0323-.641226-.1255-.200829-.0932-.376795-.2339-.513203-.4103-.136407-.1765-.2292958-.3835-.2709088-.6038-.041613-.2204-.03074214-.4477.0317047-.6629L5.10477 6.58616C5.45562 4.25872 7.63865 0 13.4861 0c.3877 0 .7595.156518 1.0336.435122.2742.278605.4282.656478.4282 1.050478 0 .39401-.154.77188-.4282 1.05048-.2741.2786-.6459.43512-1.0336.43512-4.7072 0-5.43813 3.6942-5.4966 4.10026L3.3408 26.6022h2.03387c.74622-5.8175 5.65253-10.3104 11.59383-10.3104 5.9381 0 10.8422 4.488 11.5926 10.3008l1.9976.0091c.7456-5.7499 5.598-10.1883 11.4728-10.1883 5.8863 0 10.7461 4.4557 11.4771 10.2219v-.0529h2.1373L51.007 7.07146c-.0683-.40606-.77-4.10026-5.4966-4.10026-.3877 0-.7595-.15652-1.0337-.43512-.2741-.2786-.4282-.65647-.4282-1.05048 0-.394.1541-.771873.4282-1.050478C44.7509.156518 45.1227 0 45.5104 0c5.8474 0 8.0304 4.25872 8.3813 6.58616zM25.6722 29.5635c.0726-.4617.1103-.9352.1103-1.4176 0-.5295-.0454-1.0482-.1325-1.5524-.7248-4.1953-4.3359-7.3838-8.6815-7.3838-4.3482 0-7.96097 3.1923-8.68279 7.3913-.08626.5018-.13124 1.018-.13124 1.5449 0 .4746.03649.9405.10678 1.3951.66066 4.2726 4.30745 7.5411 8.70725 7.5411 4.392 0 8.0338-3.257 8.7037-7.5186zm24.9416 0c.0736-.4615.1118-.935.1118-1.4176 0-4.8682-3.8925-8.8146-8.6941-8.8146-4.8016 0-8.6941 3.9464-8.6941 8.8146 0 .4826.0382.9561.1118 1.4176.6688 4.1942 4.2566 7.397 8.5823 7.397s7.9135-3.2028 8.5823-7.397z" fill="#fff"/>
  <path d="M71.005 18.5486c-.0001-.3361.1308-.6588.3647-.8992.234-.2404.5524-.3793.8871-.3871H79.39c5.0569 0 8.3851 2.7022 8.3851 7.1295v.0598c0 4.8461-4.0336 7.3589-8.8024 7.3589h-5.4343v6.8005c.0155.1764-.0056.3541-.0622.5219-.0566.1677-.1473.3218-.2665.4525-.1191.1306-.264.235-.4255.3064-.1615.0713-.3361.1082-.5125.1082-.1765 0-.351-.0369-.5125-.1082-.1615-.0714-.3065-.1758-.4256-.3064-.1191-.1307-.2099-.2848-.2665-.4525-.0565-.1678-.0777-.3455-.0621-.5219V18.5486zm8.0671 10.9685c3.7057 0 6.1398-1.9943 6.1398-4.9857v-.0598c0-3.2108-2.3944-4.876-5.961-4.876H73.588v9.8816l5.4841.0399zM92.5935 18.389c-.0156-.1764.0056-.3541.0621-.5219.0566-.1677.1474-.3219.2665-.4525.1191-.1307.2641-.235.4256-.3064.1615-.0713.336-.1082.5125-.1082.1764 0 .351.0369.5125.1082.1615.0714.3064.1757.4255.3064.1192.1306.2099.2848.2665.4525.0566.1678.0777.3455.0622.5219v20.222c.0155.1764-.0056.3541-.0622.5219-.0566.1677-.1473.3219-.2665.4525-.1191.1307-.264.235-.4255.3064-.1615.0713-.3361.1082-.5125.1082-.1765 0-.351-.0369-.5125-.1082-.1615-.0714-.3065-.1757-.4256-.3064-.1191-.1306-.2099-.2848-.2665-.4525-.0565-.1678-.0777-.3455-.0621-.5219V18.389zM101.674 18.419c.008-.3299.142-.644.376-.8764.233-.2324.547-.365.876-.3701h.347c.259.0053.511.0757.735.2046.224.129.412.3123.547.5333l13.601 17.4V18.3591c0-.3279.13-.6424.361-.8743.231-.2319.544-.3621.871-.3621.327 0 .64.1302.871.3621.231.2319.361.5464.361.8743v20.2917c.005.1543-.021.3081-.076.452-.056.1439-.141.2749-.248.385-.108.1101-.237.197-.38.2554-.142.0584-.295.0871-.449.0843h-.129c-.264-.0183-.52-.0981-.747-.2331-.228-.135-.421-.3216-.564-.5447l-13.909-17.8089v17.41c-.002.3214-.127.6297-.349.8616-.222.2318-.523.3696-.843.3849-.325-.0053-.635-.1392-.862-.3727-.227-.2335-.353-.5475-.35-.8738V18.419h-.04zM126.938 18.389c-.015-.1764.006-.3541.063-.5219.056-.1677.147-.3219.266-.4525.119-.1307.264-.235.426-.3064.161-.0713.336-.1082.512-.1082.177 0 .351.0369.513.1082.161.0714.306.1757.425.3064.119.1306.21.2848.267.4525.056.1678.077.3455.062.5219v12.2947l12.756-13.1323c.262-.2717.617-.4323.994-.4487.325.0128.633.1501.86.3838.227.2337.357.546.362.8726-.007.1699-.048.3366-.119.4907-.072.154-.173.2923-.299.4067l-7.948 7.8974 8.574 10.5297c.224.2605.348.5932.348.9373-.004.1724-.042.3424-.111.5001-.07.1576-.17.2999-.295.4185-.124.1187-.271.2114-.432.2728-.16.0614-.331.0903-.503.085-.2-.0082-.395-.0651-.568-.1659-.173-.1008-.319-.2423-.426-.4125L134.3 28.859l-4.828 4.8461v4.8859c0 .1663-.033.331-.096.4846-.064.1537-.157.2933-.274.4109-.117.1176-.256.2108-.409.2745-.153.0636-.317.0964-.483.0964-.166 0-.33-.0328-.483-.0964-.153-.0637-.292-.1569-.409-.2745-.117-.1176-.21-.2572-.274-.4109-.063-.1536-.096-.3183-.096-.4846V18.389h-.01z" fill="#fff"/>
</symbol><symbol id="pink" viewBox="0 0 74 23">
  <path d="M.00496827 1.54857C.00487772 1.21254.135804.889818.369742.649431.60368.409043.922049.27008 1.25676.262266h7.13325c5.05689 0 8.38509 2.702234 8.38509 7.129524v.05983c0 4.84608-4.0336 7.35888-8.80236 7.35888H2.53836v6.8005c.01558.1764-.00559.3541-.06217.5219-.05658.1677-.14732.3218-.26646.4525-.11915.1306-.26408.235-.42557.3064-.1615.0713-.33604.1082-.5125.1082-.17646 0-.350989-.0369-.512487-.1082-.161499-.0714-.306429-.1758-.425571-.3064-.119142-.1307-.209894-.2848-.2664725-.4525-.056578-.1678-.0777433-.3455-.06216123-.5219V1.54857zM8.07209 12.5171c3.70571 0 6.13981-1.9943 6.13981-4.98571v-.05983c0-3.21078-2.3944-4.876-5.96098-4.876H2.58804v9.88164l5.48405.0399zM21.5935 1.38904c-.0156-.17642.0056-.35417.0621-.521926.0566-.167761.1474-.321869.2665-.452518.1191-.130649.2641-.23498.4256-.306358C22.5092.0368607 22.6837 0 22.8602 0c.1764 0 .351.0368607.5125.108238.1615.071378.3064.175709.4255.306358.1192.130649.2099.284757.2665.452518.0566.167756.0778.345506.0622.521926V21.611c.0156.1764-.0056.3541-.0622.5219-.0566.1677-.1473.3219-.2665.4525-.1191.1307-.264.235-.4255.3064-.1615.0713-.3361.1082-.5125.1082-.1765 0-.351-.0369-.5125-.1082-.1615-.0714-.3065-.1757-.4256-.3064-.1191-.1306-.2099-.2848-.2665-.4525-.0565-.1678-.0777-.3455-.0621-.5219V1.38904zM30.674 1.41895c.0076-.32987.1423-.643943.3757-.876329.2334-.232386.5473-.365024.8761-.37009h.3477c.2581.005302.5108.075657.7347.204596.224.128938.412.312321.5469.533285L47.1559 18.3104V1.35912c0-.32792.1298-.64242.3609-.874299.231-.231879.5443-.362148.8711-.362148.3267 0 .64.130269.8711.362148.231.231879.3608.546379.3608.874299V21.6508c.0054.1543-.0205.3081-.0763.452-.0557.1439-.1401.2749-.2479.385-.1079.1101-.2369.197-.3793.2554-.1424.0584-.2952.0871-.449.0843h-.1291c-.2638-.0183-.5198-.0981-.7474-.2331-.2277-.1351-.4208-.3216-.564-.5447L33.1179 4.24085V21.6508c-.0021.3214-.1269.6297-.3487.8616-.2218.2318-.5236.3696-.8434.3849-.325-.0053-.6348-.1392-.8618-.3727-.2271-.2335-.353-.5475-.3503-.8738V1.41895h-.0397zM55.9384 1.38904c-.0156-.17642.0056-.35417.0621-.521926.0566-.167761.1474-.321869.2665-.452518.1192-.130649.2641-.23498.4256-.306358C56.8541.0368607 57.0286 0 57.2051 0c.1764 0 .351.0368607.5125.108238.1615.071378.3064.175709.4255.306358.1192.130649.2099.284757.2665.452518.0566.167756.0778.345506.0622.521926V13.6837L71.2282.551443c.2617-.271731.6173-.432338.9934-.448713.3252.012723.6332.150082.8605.383801.2273.233719.3567.546009.3615.872589-.007.16984-.0475.3366-.1191.49063-.0716.15404-.1729.2923-.2981.4068l-7.9479 7.89735 8.5738 10.5297c.2241.2605.3475.5932.3477.9373-.0039.1724-.0417.3424-.1113.5001-.0696.1576-.1697.2999-.2944.4185-.1247.1187-.2715.2114-.4321.2728-.1606.0614-.3317.0903-.5034.085-.2-.0082-.3949-.0651-.568-.1659-.1731-.1008-.3192-.2423-.4255-.4125L63.3001 11.859l-4.8283 4.8461v4.8859c0 .1663-.0327.331-.0961.4846-.0634.1537-.1563.2933-.2735.4109-.1171.1176-.2562.2108-.4093.2745-.1531.0636-.3172.0964-.4829.0964-.1657 0-.3297-.0328-.4828-.0964-.1531-.0637-.2922-.1569-.4093-.2745-.1172-.1176-.2101-.2572-.2736-.4109-.0634-.1536-.096-.3183-.096-.4846V1.38904h-.0099z" fill="#fff"/>
</symbol></svg>